<?xml version="1.0" encoding="utf-8"?>
<svg x="0px" y="0px" viewBox="14.696 69.939 85.304 30.061" xmlns="http://www.w3.org/2000/svg" id="chefMoustache">
  <path style="stroke: var(--chef-color); fill: var(--chef-color)" d="M 97.41 83.241 C 95.512 82.434 94.574 85.441 89.02 85.308 C 80.726 85.11 73.643 80.922 66.035 80.742 C 62.697 80.662 59.612 81.225 57.347 82.189 C 55.081 81.225 52.001 80.663 48.662 80.742 C 41.054 80.922 33.972 85.111 25.676 85.308 C 20.125 85.441 19.182 82.435 17.287 83.241 C 16.537 83.562 17.07 85.207 23.454 87.551 C 27.623 89.084 34.126 89.278 41.854 89.093 C 48.869 88.925 54.163 88.574 57.347 86.852 C 60.53 88.574 65.563 88.925 72.576 89.093 C 80.308 89.278 87.068 89.084 91.243 87.551 C 97.628 85.206 98.159 83.561 97.41 83.241 Z"/>
</svg>