<?xml version="1.0" encoding="utf-8"?>
<svg x="0px" y="0px" viewBox="0 0 100 100" xmlns="http://www.w3.org/2000/svg" id="chefHat">
  <defs>
    <style id="bx-google-fonts">@import url(https://fonts.googleapis.com/css?family=Yatra+One:400);</style>
  </defs>
  <path style="stroke: var(--chef-color); fill: var(--chef-color)" d="M 79.177 16.248 C 76.863 16.248 74.598 16.592 72.402 17.271 C 68.225 10.533 60.811 6.321 52.756 6.321 C 44.703 6.321 37.287 10.534 33.108 17.273 C 30.915 16.592 28.646 16.248 26.332 16.248 C 13.326 16.248 4.242 24.908 4.242 37.308 C 4.242 49.035 12.04 57.816 23.188 59.208 L 24.307 85.977 C 24.399 88.046 25.792 90.062 27.693 90.875 C 28.652 91.286 33.296 92.629 52.756 92.629 C 67.703 92.629 76.705 90.863 77.082 90.787 C 79.332 90.336 81.103 88.266 81.203 85.97 L 82.319 59.208 C 93.471 57.817 101.27 49.037 101.27 37.308 C 101.27 24.908 92.184 16.248 79.177 16.248 Z M 52.756 89.372 C 38.151 89.372 32.578 88.597 30.81 88.248 L 30.235 69.874 C 33.668 70.183 40.368 70.56 52.625 70.56 C 62.766 70.56 70.902 70.07 75.021 69.763 L 74.721 87.844 C 71.968 88.29 64.117 89.372 52.756 89.372 Z M 79.178 52.863 L 76.044 52.863 L 75.202 65.379 C 73.899 65.48 72.079 65.608 69.829 65.731 L 69.96 62.125 C 69.96 59.648 68.23 59.638 67.579 61.555 L 64.273 65.988 C 61.594 66.086 58.6 66.164 55.344 66.191 L 53.951 61.964 C 53.612 59.534 51.631 59.605 51.363 61.964 L 49.708 66.195 C 46.34 66.176 43.458 66.129 41 66.062 L 37.93 61.555 C 37.279 59.638 35.548 59.648 35.548 62.125 L 35.417 65.855 C 32.95 65.731 31.219 65.594 30.047 65.48 L 29.465 52.863 L 26.331 52.863 C 17.173 52.863 10.777 46.466 10.777 37.308 C 10.777 28.487 16.883 22.785 26.331 22.785 C 28.723 22.785 31.056 23.304 33.263 24.321 L 36.268 25.708 L 37.617 22.688 C 40.291 16.716 46.23 12.86 52.756 12.86 C 59.28 12.86 65.221 16.718 67.892 22.689 L 69.244 25.708 L 72.248 24.322 C 74.454 23.305 76.784 22.787 79.177 22.787 C 88.626 22.787 94.735 28.489 94.735 37.312 C 94.734 46.467 88.336 52.863 79.178 52.863 Z" transform="matrix(0.852153, -0.523293, 0.523293, 0.852153, -18.090094, 34.921576)"/>
  <text x="31.499" y="85.191" style="font-family: &quot;Yatra One&quot;; font-size: 19.6px; font-variant: small-caps; letter-spacing: 0.3px; word-spacing: -0.1px; white-space: pre; stroke: var(--chef-color); fill: var(--chef-color)" transform="matrix(0.833862, -0.551974, 0.551973, 0.833861, -16.004994, 36.912633)">The</text>
</svg>